<!DOCTYPE svg PUBLIC "-//W3C//DTD SVG 1.1//EN" "http://www.w3.org/Graphics/SVG/1.1/DTD/svg11.dtd">
<!-- Uploaded to: SVG Repo, www.svgrepo.com, Transformed by: SVG Repo Mixer Tools -->
<svg fill="#000000" width="256px" height="256px" viewBox="0 0 24.00 24.00" id="water-tap" data-name="Line Color" xmlns="http://www.w3.org/2000/svg" class="icon line-color">
<g id="SVGRepo_bgCarrier" stroke-width="0"/>
<g id="SVGRepo_tracerCarrier" stroke-linecap="round" stroke-linejoin="round"/>
<g id="SVGRepo_iconCarrier">
<path id="secondary" d="M8,5h6M11,5V8.84" style="fill: none; stroke: #2ca9bc; stroke-linecap: round; stroke-linejoin: round; stroke-width: 2;"/>
<path id="primary" d="M17,11H14.62a1,1,0,0,1-.9-.55l-.44-.9a1,1,0,0,0-.9-.55H9.62a1,1,0,0,0-.9.55l-.44.9a1,1,0,0,1-.9.55H3v4H16a1,1,0,0,1,1,1v2a1,1,0,0,0,1,1h2a1,1,0,0,0,1-1V15A4,4,0,0,0,17,11ZM3,9v8" style="fill: none; stroke: #000000; stroke-linecap: round; stroke-linejoin: round; stroke-width: 2;"/>
</g>
</svg>